<?xml version="1.0" encoding="UTF-8"?>
<svg id="Layer_1" data-name="Layer 1" xmlns="http://www.w3.org/2000/svg" viewBox="0 0 216 216">
  <defs>
    <style>
      .cls-1 {
        fill: none;
      }
    </style>
  </defs>
  <path class="cls-1" d="M139.76,106.97c-2.96,0-6.84,0-8.44.23-.45,0-1.37.46-1.37,1.14,0,15.73,0,38.76.68,49.02.23,2.51,2.05,6.16,3.88,7.75,4.11,3.65,12.31,5.02,15.73,5.02,15.28,0,25.54-10.72,25.54-31.24s-13-31.92-36.03-31.92Z"/>
  <path class="cls-1" d="M131.1,97.62c2.28.23,6.38.23,12.08.23,8.21,0,13.91-.91,16.42-2.28,6.16-3.88,9.12-10.72,9.12-19.61,0-17.56-9.8-28.73-30.55-28.73-1.82,0-4.11.46-5.93.91-.68.23-1.59,2.05-1.59,3.19-.46,6.61-.68,29.64-.68,44.92,0,.68.68,1.37,1.14,1.37Z"/>
  <path d="M84.33,103.12c-9.12-5.7-26.11-10.29-35.69-16.44-9.35-6.38-14.59-12.77-14.59-23.26s7.75-20.75,20.98-20.75c7.07,0,12.77,1.37,17.78,5.02,5.47,3.88,11.91,10.83,13.96,24.51.89.89,6.11.91,7.43-.14v-33.57c-9.2-1.18-22.16-3.79-37.12-3.79-25.77,0-47.2,14.36-47.2,40.36,0,22.8,23.97,33.75,43.58,45.6,20.98,12.77,27.13,19.61,27.13,31.69,0,13.45-10.03,19.84-20.98,19.84-7.3,0-15.5-1.82-21.43-6.16-8.21-5.93-13.68-15.05-18.47-30.1-1.14-.68-6.84.91-7.52,2.28.46,7.98,4.79,32.38,7.07,35.8,5.47,2.96,19.38,7.43,34.43,7.3,39.11-.34,53.36-19.61,53.36-43.09,0-16.42-7.66-25.74-22.71-35.09Z"/>
  <g>
    <path class="cls-1" d="M131.1,97.62c2.28.23,6.38.23,12.08.23,8.21,0,13.91-.91,16.42-2.28,6.16-3.88,9.12-10.72,9.12-19.61,0-17.56-9.8-28.73-30.55-28.73-1.82,0-4.11.46-5.93.91-.68.23-1.59,2.05-1.59,3.19-.46,6.61-.68,29.64-.68,44.92,0,.68.68,1.37,1.14,1.37Z"/>
    <path class="cls-1" d="M139.76,106.97c-2.96,0-6.84,0-8.44.23-.45,0-1.37.46-1.37,1.14,0,15.73,0,38.76.68,49.02.23,2.51,2.05,6.16,3.88,7.75,4.11,3.65,12.31,5.02,15.73,5.02,15.28,0,25.54-10.72,25.54-31.24s-13-31.92-36.03-31.92Z"/>
    <path d="M171.91,99.45c-.46-.23-.46-.68,0-.91,15.28-5.02,24.17-16.42,24.17-28.96,0-26.22-23.49-31.47-43.09-31.47-9.12,0-22.57.68-38.99.68-4.37,0-8.22-.05-11.63-.13v68.38c.39.36.78.74,1.16,1.12,8.73,8.68,12.67,19.16,12.34,30.34-.53,17.51-6.85,26.74-11.21,31.35-5.69,6.01-13,9.7-13.06,9.74,16.62.22,41.28.89,48.85.89,13.22,0,27.59-1.82,37.85-6.38,18.01-7.75,27.82-21.99,27.82-40.23,0-19.84-14.59-30.1-34.2-34.43ZM130.64,51.34c0-1.14.91-2.96,1.59-3.19,1.82-.46,4.11-.91,5.93-.91,20.75,0,30.55,11.17,30.55,28.73,0,8.89-2.96,15.73-9.12,19.61-2.51,1.37-8.21,2.28-16.42,2.28-5.7,0-9.81,0-12.08-.23-.46,0-1.14-.68-1.14-1.37,0-15.28.23-38.31.68-44.92ZM150.25,170.13c-3.42,0-11.63-1.37-15.73-5.02-1.82-1.6-3.65-5.25-3.88-7.75-.68-10.26-.68-33.29-.68-49.02,0-.68.91-1.14,1.37-1.14,1.6-.23,5.47-.23,8.44-.23,23.03,0,36.03,11.86,36.03,31.92s-10.26,31.24-25.54,31.24Z"/>
    <path d="M102.37,104.2c0,.68,0,2.09,0,2.85,0,0,0,0,0,0v-2.85Z"/>
  </g>
</svg>